Coordinates
version=1
nRows=19
nColumns=24
inDegrees=yes

Units are S.I. units (second, meters, Newtons, ...)
Angles are in degrees.

endheader
time	pelvis_tilt	pelvis_list	pelvis_rotation	pelvis_tx	pelvis_ty	pelvis_tz	hip_flexion_r	hip_adduction_r	hip_rotation_r	knee_angle_r	ankle_angle_r	subtalar_angle_r	mtp_angle_r	hip_flexion_l	hip_adduction_l	hip_rotation_l	knee_angle_l	ankle_angle_l	subtalar_angle_l	mtp_angle_l	lumbar_extension	lumbar_bending	lumbar_rotation
      1.57500000	     23.12422016	     -6.78867842	      4.65063038	     -0.09936324	      0.90764930	     -0.02798052	     -0.34551105	      6.33936588	     -2.88350694	    -32.08385295	     12.69805837	    -14.45134768	     17.95016691	    -33.32070894	     -4.13605491	     26.67624956	     -1.07180957	      1.22401533	    -41.99481085	     18.36459252	    -31.22473735	      8.03933784	      1.33808351
      1.58000000	     23.05395704	     -6.76984988	      4.74807862	     -0.09420991	      0.90679577	     -0.02789700	     -0.26512452	      6.47320569	     -2.33095938	    -29.94723358	     12.28433884	    -15.27822400	     18.08891911	    -33.60029852	     -4.17636824	     26.72102026	     -1.08945014	      1.55924502	    -41.96672191	     18.24406567	    -31.21514496	      8.06628019	      1.19520574
      1.58500000	     22.94205053	     -6.73863339	      4.80154404	     -0.08903868	      0.90585955	     -0.02769461	     -0.18036674	      6.60153486	     -1.63720111	    -27.75011029	     11.79745709	    -16.25767284	     18.49569759	    -33.82291348	     -4.17856620	     26.70965352	     -1.15292421	      2.00029596	    -41.79866067	     18.07186708	    -31.16313158	      8.05014055	      1.08675746
      1.59000000	     22.86874807	     -6.71531567	      4.91195907	     -0.08378649	      0.90495335	     -0.02761583	     -0.21081326	      6.71735149	     -0.99145825	    -25.43945222	     11.25147009	    -17.11551256	     18.99201218	    -34.08627959	     -4.21671763	     26.71680534	     -1.21505067	      2.42838562	    -41.62323856	     17.91789330	    -31.13698483	      8.07936059	      0.94667749
      1.59500000	     22.84857369	     -6.67822356	      5.09410073	     -0.07844230	      0.90407991	     -0.02766911	     -0.35675134	      6.78296695	     -0.49132813	    -23.06608776	     10.82618676	    -17.50461711	     19.19944421	    -34.41026532	     -4.28141870	     26.76874890	     -1.26026179	      2.72011246	    -41.56990822	     17.87183409	    -31.14891900	      8.13461138	      0.72397918
      1.60000000	     22.70828173	     -6.60694401	      5.11433541	     -0.07315371	      0.90302713	     -0.02739873	     -0.41779444	      6.85322741	      0.51704156	    -20.60887811	      9.99444164	    -18.87431543	     19.83056567	    -34.59934471	     -4.22521725	     26.70187443	     -1.35943511	      3.25755550	    -41.22976532	     17.81063213	    -31.05966554	      8.06534437	      0.61773890
      1.60500000	     22.64922753	     -6.55003878	      5.22333679	     -0.06768681	      0.90203799	     -0.02726978	     -0.65172277	      6.89484664	      1.34244934	    -18.01725409	      9.02391237	    -20.04198929	     23.61114887	    -34.85698142	     -4.22375601	     26.49821615	     -1.51782801	      4.06143670	    -40.40047981	     17.36876777	    -31.02552954	      8.05753030	      0.42266214
      1.61000000	     22.54804799	     -6.43224106	      5.32183586	     -0.06225751	      0.90096589	     -0.02716383	     -0.87414463	      6.84814814	      2.26774808	    -15.43286514	      8.18502264	    -20.97979000	     23.65758087	    -35.10019349	     -4.16624154	     26.56759739	     -1.58171194	      4.26561286	    -40.47484020	     17.32624813	    -30.95404082	      7.98800027	      0.23126782
      1.61500000	     22.42979482	     -6.30586154	      5.39579301	     -0.05671731	      0.89982413	     -0.02701451	     -1.13607437	      6.76754232	      3.28880984	    -12.79190013	      7.23581100	    -22.03090001	     24.06047192	    -35.29724663	     -4.07037914	     26.45332348	     -1.74428013	      4.73139169	    -40.18559139	     17.40018259	    -30.85361369	      7.89751209	      0.03567111
      1.62000000	     22.30120663	     -6.13405219	      5.46849613	     -0.05113011	      0.89862057	     -0.02686981	     -1.42846540	      6.60373750	      4.34515960	    -10.14133356	      6.16226569	    -23.09752658	     24.71595429	    -35.49755637	     -3.94121153	     26.40517747	     -1.88036281	      5.20565861	    -39.77297500	     17.51655595	    -30.73886754	      7.76165929	     -0.16102706
      1.62500000	     22.25645434	     -5.93145546	      5.60521707	     -0.04541928	      0.89747224	     -0.02687669	     -1.81481184	      6.36353044	      5.11128599	     -7.60679810	      5.41870624	    -23.39308653	     25.12472806	    -35.78888903	     -3.81019069	     26.34718236	     -2.02166793	      5.52628029	    -39.57922696	     17.59758809	    -30.69292120	      7.63614625	     -0.46824205
      1.63000000	     22.00553526	     -5.66298789	      5.56511858	     -0.03974540	      0.89602432	     -0.02657574	     -1.99443476	      6.02417165	      6.36713633	     -5.06686123	      3.80091085	    -25.17337362	     29.52271243	    -35.81119118	     -3.49879298	     26.14926445	     -2.32350775	      6.26162955	    -38.80608498	     17.85567557	    -30.45320153	      7.34621101	     -0.62347842
      1.63500000	     21.81677379	     -5.37853718	      5.58991886	     -0.03401660	      0.89462684	     -0.02641945	     -2.18601108	      5.63904680	      7.29396137	     -2.79804704	      2.85037611	    -25.71414511	     29.54789861	    -35.93393405	     -3.21603725	     26.11561387	     -2.53050474	      6.57002441	    -38.65183878	     17.95438493	    -30.26749892	      7.07996564	     -0.85476472
      1.64000000	     21.62814805	     -5.09137202	      5.61655303	     -0.02821987	      0.89321856	     -0.02626647	     -2.33387817	      5.23539969	      8.07271980	     -0.73432901	      2.01077156	    -25.94125035	     29.79734609	    -36.05305316	     -2.93393084	     26.04352908	     -2.75960631	      7.02491536	    -38.22961119	     18.14359903	    -30.07348258	      6.81291035	     -1.07389106
      1.64500000	     21.41340972	     -4.75822998	      5.63153769	     -0.02245160	      0.89180019	     -0.02612063	     -2.35173582	      4.77552277	      8.62228485	      0.98602153	      1.61923567	    -25.42787727	     29.86497659	    -36.13026744	     -2.58863319	     26.05006524	     -3.01842702	      7.21791131	    -38.20720751	     18.19221391	    -29.85892888	      6.49480322	     -1.32532443
      1.65000000	     21.24680545	     -4.48371154	      5.65594674	     -0.01654574	      0.89041558	     -0.02592787	     -2.47418984	      4.38909958	      9.28775699	      2.72451430	      0.70797898	    -25.81550319	     30.23412952	    -36.23242769	     -2.31014531	     25.79746237	     -3.37259534	      7.94686932	    -37.25972504	     18.56517639	    -29.67648791	      6.23881804	     -1.52677795
      1.65500000	     21.06281830	     -4.18904459	      5.68310464	     -0.01068401	      0.88905341	     -0.02575836	     -2.46996762	      3.99156307	      9.70740942	      4.09706045	      0.22350872	    -25.50522077	     30.75157556	    -36.30581165	     -2.00742669	     25.64767809	     -3.73553166	      8.43991460	    -36.68225741	     18.84502895	    -29.48449165	      5.96655562	     -1.75810184
      1.66000000	     20.89427806	     -3.89964321	      5.69929248	     -0.00482339	      0.88775415	     -0.02557269	     -2.43114845	      3.61784445	     10.04841331	      5.22876132	     -0.11254885	    -25.01665197	     30.82182542	    -36.42052558	     -1.70904125	     25.59415976	     -4.03320448	      8.55732071	    -36.62759662	     18.89409262	    -29.31063053	      5.69595814	     -1.95601922
      1.66500000	     20.77210822	     -3.67600843	      5.76748328	      0.00116777	      0.88654496	     -0.02540286	     -2.42452378	      3.34760451	     10.22640210	      6.18136877	     -0.44226790	    -24.53618708	     31.19542579	    -36.51932386	     -1.49954767	     25.27534164	     -4.50353138	      9.29116657	    -35.56418130	     19.32119251	    -29.16204014	      5.51413642	     -2.16550285
